<?xml version="1.0" standalone="no"?>
<!DOCTYPE svg PUBLIC "-//W3C//DTD SVG 20010904//EN"
 "http://www.w3.org/TR/2001/REC-SVG-20010904/DTD/svg10.dtd">
<svg version="1.0" xmlns="http://www.w3.org/2000/svg"
 width="260.000000pt" height="260.000000pt" viewBox="0 0 260.000000 260.000000"
 preserveAspectRatio="xMidYMid meet">
<metadata>
Created by potrace 1.11, written by Peter Selinger 2001-2013
</metadata>
<g transform="translate(0.000000,260.000000) scale(0.100000,-0.100000)"
fill="#000000" stroke="none">
<path d="M267 2589 c-25 -7 -57 -31 -57 -43 0 -3 8 -3 18 0 14 5 15 4 2 -5 -8
-6 -13 -11 -10 -12 36 -7 61 -2 93 19 21 14 36 30 34 36 -4 13 -42 15 -80 5z"/>
<path d="M580 2370 c0 -215 5 -247 30 -200 6 11 15 18 21 14 5 -3 -3 -15 -18
-27 -15 -11 -30 -22 -33 -24 -2 -2 2 -8 10 -13 20 -13 60 -13 60 0 0 6 -12 8
-26 6 -25 -5 -26 -5 -9 14 24 26 33 25 41 -5 l6 -25 159 0 160 0 -15 28 -15
29 105 79 c120 91 120 91 75 199 -31 74 -31 79 1 96 17 9 19 8 14 -8 -3 -10
-1 -25 4 -33 7 -11 9 1 8 38 l-1 52 -139 0 -140 0 -40 -31 c-21 -17 -40 -30
-41 -28 -2 2 -8 16 -15 32 -11 27 -12 27 -107 27 l-95 0 0 -220z"/>
<path d="M795 2580 c-3 -5 -2 -10 4 -10 5 0 13 5 16 10 3 6 2 10 -4 10 -5 0
-13 -4 -16 -10z"/>
<path d="M1310 2500 c0 -64 -3 -80 -15 -80 -12 0 -15 -19 -15 -115 0 -108 -1
-115 -20 -115 -11 0 -20 -4 -20 -10 0 -6 42 -10 105 -10 87 0 105 -3 105 -15
0 -8 -9 -15 -21 -15 -11 0 -17 -4 -14 -10 4 -6 58 -10 130 -10 72 0 126 4 130
10 3 6 -1 10 -9 10 -9 0 -16 9 -16 20 0 17 7 20 43 20 23 0 53 3 67 7 24 7 23
8 -9 13 -56 8 -50 28 11 32 l53 3 0 125 0 125 -82 3 -83 3 0 44 0 45 -170 0
-170 0 0 -80z m320 25 c0 -24 -5 -35 -15 -35 -10 0 -15 10 -15 29 0 29 0 29
-62 29 -47 0 -57 -2 -40 -9 25 -9 28 -19 10 -37 -27 -27 -75 -11 -92 33 -5 13
-10 15 -13 8 -3 -7 -14 -13 -26 -14 -22 0 -22 0 1 -9 12 -5 22 -12 22 -15 0
-3 -10 -10 -22 -15 -20 -8 -19 -9 13 -9 34 -1 35 -3 31 -31 -3 -24 -7 -28 -21
-21 -9 5 -25 5 -36 0 -34 -13 -35 -11 -35 55 0 61 1 64 22 58 14 -3 19 -2 14
6 -5 9 28 12 128 12 l136 0 0 -35z m128 -60 c-2 -3 -17 -6 -31 -7 -16 -1 -29
-10 -33 -20 -8 -25 -60 -24 -76 2 -13 21 -38 27 -38 10 0 -6 8 -14 17 -17 15
-6 15 -7 -3 -14 -16 -6 -15 -8 9 -8 25 -1 27 -4 27 -46 0 -45 0 -45 -35 -45
l-35 0 0 69 c0 46 4 71 13 74 16 7 192 9 185 2z m42 -90 l0 -95 -77 0 c-42 0
-74 1 -72 3 27 20 60 37 55 28 -5 -7 6 -11 33 -11 32 0 39 3 35 15 -4 11 -23
15 -63 16 l-56 2 63 10 62 10 0 58 c0 33 4 59 10 59 6 0 10 -38 10 -95z m-265
15 c4 -12 4 -32 1 -45 -6 -22 -9 -23 -86 -18 l-80 5 0 -54 0 -55 36 -1 c70 -3
47 -12 -29 -12 l-77 0 0 99 0 99 114 1 c108 2 115 1 121 -19z m218 -77 c-7 -2
-19 -2 -25 0 -7 3 -2 5 12 5 14 0 19 -2 13 -5z m-228 -23 c19 7 24 5 28 -11 6
-22 -1 -23 -39 -9 -33 13 -37 10 -28 -26 6 -25 8 -26 15 -9 7 19 8 18 8 -2 1
-14 -5 -23 -13 -23 -9 0 -16 -13 -19 -32 -2 -18 -5 -1 -5 39 -2 49 2 73 11 76
6 2 13 0 15 -4 2 -4 14 -4 27 1z m105 -65 l0 -75 -37 1 c-34 1 -35 2 -13 9 23
7 22 8 -10 9 -26 1 -31 4 -20 11 12 8 11 10 -7 10 -12 0 -23 -8 -26 -17 -4
-14 -5 -12 -6 5 -1 20 3 22 54 22 l55 0 0 50 c0 28 2 50 5 50 3 0 5 -34 5 -75z
m-180 15 c0 -5 -9 -10 -20 -10 -11 0 -20 5 -20 10 0 6 9 10 20 10 11 0 20 -4
20 -10z"/>
<path d="M1368 2503 c7 -3 16 -2 19 1 4 3 -2 6 -13 5 -11 0 -14 -3 -6 -6z"/>
<path d="M1380 2460 c0 -5 5 -10 10 -10 6 0 10 5 10 10 0 6 -4 10 -10 10 -5 0
-10 -4 -10 -10z"/>
<path d="M1598 2393 c7 -3 16 -2 19 1 4 3 -2 6 -13 5 -11 0 -14 -3 -6 -6z"/>
<path d="M1595 2370 c-3 -5 -1 -10 4 -10 6 0 11 5 11 10 0 6 -2 10 -4 10 -3 0
-8 -4 -11 -10z"/>
<path d="M1320 2370 l0 -30 94 0 94 0 4 30 5 30 -99 0 -98 0 0 -30z"/>
<path d="M1330 2321 c0 -6 5 -13 12 -17 6 -4 8 -3 4 4 -3 5 0 13 6 15 8 3 6 6
-4 6 -10 1 -18 -3 -18 -8z"/>
<path d="M1320 2240 c0 -13 7 -20 20 -20 13 0 20 7 20 20 0 13 -7 20 -20 20
-13 0 -20 -7 -20 -20z"/>
<path d="M317 2539 c-26 -16 -45 -34 -42 -38 3 -5 -3 -17 -12 -27 -10 -9 -18
-24 -18 -32 0 -9 -6 -17 -14 -20 -8 -3 -11 0 -7 7 10 16 -1 14 -36 -6 -29 -18
-29 -18 -48 7 -19 25 -19 25 3 42 12 10 27 17 32 16 17 -3 56 22 50 33 -4 5
-16 9 -27 9 -12 0 -18 -3 -15 -7 4 -3 -7 -15 -23 -25 -34 -20 -44 -23 -35 -8
3 6 1 10 -5 10 -7 0 -9 -8 -4 -22 6 -20 5 -21 -10 -9 -26 22 -19 -3 9 -29 14
-13 25 -26 25 -29 0 -3 -27 -23 -60 -45 l-60 -38 20 -27 c19 -28 60 -66 47
-45 -4 7 0 17 8 24 8 7 15 21 15 31 0 12 5 16 15 13 8 -3 25 5 39 19 l24 25
34 -36 33 -35 -32 23 -31 23 -37 -23 c-20 -12 -34 -28 -31 -35 2 -7 -3 -12
-12 -11 -25 2 -20 -36 10 -72 15 -18 32 -32 38 -32 6 0 9 -3 7 -8 -3 -4 5 -20
18 -36 l23 -28 0 25 c0 16 -6 24 -16 23 -34 -3 -19 35 29 70 28 20 48 39 45
42 -3 2 -12 0 -19 -6 -8 -7 -18 -8 -22 -4 -5 4 -5 2 -2 -4 10 -17 -67 -66 -82
-51 -18 18 -13 27 14 27 14 0 24 3 22 8 -1 4 1 7 5 7 4 0 15 10 23 23 9 12 20
20 25 17 4 -3 10 1 13 7 3 8 25 -7 58 -40 43 -42 51 -55 39 -62 -8 -4 -28 -20
-44 -34 -17 -13 -33 -23 -36 -21 -4 2 -7 -2 -7 -10 0 -17 3 -16 105 64 45 35
80 66 77 69 -3 3 0 11 5 17 13 16 -2 60 -25 72 -14 8 -7 17 39 52 31 23 56 46
56 51 0 16 -21 22 -36 9 -11 -9 -21 -9 -39 -1 -30 14 -45 -3 -19 -22 17 -13
17 -14 -2 -20 -26 -8 -40 -6 -36 6 1 5 -1 7 -6 4 -5 -3 -22 -2 -38 3 l-29 8
27 5 c17 3 25 1 21 -5 -3 -6 -1 -7 6 -3 6 4 9 11 7 15 -5 8 54 47 67 43 4 -1
7 5 7 14 0 17 -7 14 -58 -24 -32 -24 -88 -39 -76 -21 3 6 0 16 -6 24 -9 11 -9
15 -1 15 6 0 11 -4 11 -9 0 -22 36 -20 72 5 43 30 45 35 21 56 -32 27 -38 27
-86 -3z m-17 -118 c0 -6 -4 -12 -8 -15 -5 -3 -9 1 -9 9 0 8 4 15 9 15 4 0 8
-4 8 -9z m-35 -30 c-3 -6 -13 -11 -21 -11 -8 0 -12 5 -9 10 4 6 11 8 16 5 5
-4 9 -1 9 6 0 7 3 10 6 6 3 -3 3 -10 -1 -16z m-41 -32 c-3 -5 -10 -7 -15 -3
-5 3 -7 10 -3 15 3 5 10 7 15 3 5 -3 7 -10 3 -15z m157 -38 c-10 -18 -74 -61
-89 -61 -4 1 7 12 23 25 17 14 25 25 19 25 -6 0 -17 -7 -24 -15 -7 -8 -17 -15
-23 -15 -5 0 -2 9 9 21 12 13 26 18 40 15 13 -4 27 0 34 9 17 21 23 19 11 -4z
m-257 -91 c-6 -6 -10 -2 -11 12 -2 16 1 18 10 9 7 -7 8 -14 1 -21z m281 20 c6
-10 -29 -50 -44 -50 -22 0 -23 24 -1 42 25 20 36 22 45 8z"/>
<path d="M1900 2350 l0 -210 335 0 335 0 0 210 0 210 -70 0 c-56 0 -70 -3 -70
-15 0 -8 -5 -15 -11 -15 -5 0 -8 4 -5 9 9 15 -51 21 -202 21 l-146 0 -33 -32
c-18 -18 -33 -27 -33 -21 0 6 7 16 15 23 28 23 16 30 -50 30 l-65 0 0 -210z
m390 168 c0 -9 -29 -14 -100 -16 -86 -3 -100 -1 -100 12 0 14 15 16 100 16 73
0 100 -3 100 -12z m0 -60 c0 -13 3 -33 6 -45 6 -23 6 -23 -105 -23 -108 0
-111 1 -111 23 1 65 4 67 111 67 96 0 99 -1 99 -22z m224 4 c3 -5 -1 -9 -9 -9
-8 0 -15 4 -15 9 0 4 4 8 9 8 6 0 12 -4 15 -8z m-38 -13 c8 -14 -11 -33 -25
-25 -11 7 -4 36 9 36 5 0 12 -5 16 -11z m-118 -16 c-10 -2 -26 -2 -35 0 -10 3
-2 5 17 5 19 0 27 -2 18 -5z m-206 -88 c5 -22 2 -25 -23 -25 -16 0 -29 5 -29
11 0 5 5 7 11 3 8 -4 9 0 4 15 -5 16 -2 21 13 21 13 0 21 -9 24 -25z m150 -60
c3 -13 1 -22 -3 -19 -5 3 -9 -4 -9 -15 0 -19 -7 -21 -102 -24 -84 -2 -75 -3
49 -5 l152 -2 4 28 c4 25 4 25 6 -5 l1 -33 -160 0 -160 0 0 45 c0 25 5 45 10
45 6 0 10 -13 10 -29 l0 -29 90 0 90 -1 0 28 c0 23 7 41 16 41 1 0 4 -11 6
-25z"/>
<path d="M2127 2453 c-9 -19 -1 -38 16 -37 9 0 37 1 62 2 38 2 45 5 45 22 0
18 -7 20 -59 20 -33 0 -62 -3 -64 -7z"/>
<path d="M250 2505 c10 -13 9 -15 -9 -15 -11 0 -21 -5 -21 -11 0 -5 -4 -8 -8
-5 -5 3 -15 -4 -22 -14 -9 -12 -18 -16 -25 -10 -7 6 -11 2 -11 -11 0 -10 2
-19 3 -19 2 0 28 16 58 36 44 29 53 40 44 50 -6 8 -14 14 -16 14 -3 0 0 -7 7
-15z"/>
<path d="M1150 2291 c0 -7 -4 -9 -10 -6 -5 3 -10 2 -10 -4 0 -5 5 -13 10 -16
11 -7 26 22 16 32 -3 4 -6 1 -6 -6z"/>
<path d="M450 2265 c-7 -8 -8 -15 -2 -15 5 0 15 7 22 15 7 8 8 15 2 15 -5 0
-15 -7 -22 -15z"/>
<path d="M1151 2234 c0 -11 3 -14 6 -6 3 7 2 16 -1 19 -3 4 -6 -2 -5 -13z"/>
<path d="M225 2196 c-16 -13 -27 -27 -24 -30 3 -3 21 8 40 24 41 35 27 40 -16
6z"/>
<path d="M261 2189 c-38 -27 -49 -47 -35 -62 7 -7 104 61 104 73 0 21 -33 16
-69 -11z"/>
<path d="M1059 2202 c-13 -12 -18 -21 -12 -25 6 -4 18 4 27 18 20 30 16 31
-15 7z"/>
<path d="M1004 2170 c3 -14 6 -33 6 -42 0 -13 8 -18 25 -18 28 0 25 11 -16 60
l-21 25 6 -25z"/>
<path d="M1085 2169 c-11 -17 1 -21 15 -4 8 9 8 15 2 15 -6 0 -14 -5 -17 -11z"/>
<path d="M1124 2158 l-19 -23 23 19 c21 18 27 26 19 26 -2 0 -12 -10 -23 -22z"/>
<path d="M1080 2130 c-8 -5 -12 -12 -9 -15 4 -3 12 1 19 10 14 17 11 19 -10 5z"/>
<path d="M1108 2113 c7 -3 16 -2 19 1 4 3 -2 6 -13 5 -11 0 -14 -3 -6 -6z"/>
<path d="M15 2072 c-3 -3 -5 -10 -5 -16 0 -6 5 -4 10 4 7 10 10 11 10 2 0 -9
44 -12 191 -12 133 1 189 4 181 12 -5 5 -26 9 -46 9 -56 -2 -59 -2 -96 -2 -19
0 -48 0 -65 0 -16 0 -37 1 -45 1 -8 0 -24 -1 -34 -3 -11 -2 -37 -1 -57 3 -21
4 -41 5 -44 2z"/>
<path d="M420 2064 c0 -10 13 -14 42 -14 48 0 45 8 -6 20 -28 6 -36 5 -36 -6z"/>
<path d="M577 2073 c-19 -18 2 -23 93 -23 61 0 100 4 100 10 0 6 -29 10 -74 9
-41 -1 -80 2 -87 6 -8 6 -10 4 -4 -6 7 -11 6 -12 -7 -2 -8 7 -18 10 -21 6z"/>
<path d="M938 2073 c-32 -8 -19 -22 17 -21 19 1 35 3 35 4 0 9 -37 20 -52 17z"/>
<path d="M1000 2066 c0 -11 10 -16 31 -16 38 0 35 24 -4 28 -19 2 -27 -1 -27
-12z"/>
<path d="M1220 2063 c0 -7 6 -13 13 -14 41 -2 192 3 196 7 11 11 -14 15 -108
17 -75 1 -101 -1 -101 -10z"/>
<path d="M1458 2073 c-32 -8 -19 -22 17 -21 19 1 35 3 35 4 0 9 -37 20 -52 17z"/>
<path d="M1628 2072 c-61 -1 -108 -7 -108 -12 0 -11 2 -11 115 -11 127 0 165
3 165 11 0 12 -53 15 -172 12z"/>
<path d="M1913 2072 c-36 -5 -27 -20 15 -24 61 -5 182 3 182 12 0 9 -155 18
-197 12z"/>
<path d="M2138 2072 c-32 -6 -19 -21 17 -20 19 1 35 4 35 8 0 10 -31 17 -52
12z"/>
<path d="M802 2060 c2 -6 7 -11 11 -11 4 1 27 1 52 1 65 0 55 16 -11 19 -38 1
-55 -2 -52 -9z"/>
<path d="M1070 2061 c0 -13 28 -22 35 -12 3 5 15 7 27 3 14 -3 19 -2 14 6 -8
14 -76 16 -76 3z"/>
<path d="M2200 2060 c0 -5 9 -10 20 -10 11 0 20 5 20 10 0 6 -9 10 -20 10 -11
0 -20 -4 -20 -10z"/>
<path d="M2250 2060 c0 -6 23 -10 60 -8 33 1 60 5 60 9 0 3 -27 7 -60 8 -37 1
-60 -3 -60 -9z"/>
<path d="M2382 2059 c4 -11 108 -19 108 -9 0 3 19 4 41 2 27 -3 39 -1 35 6 -9
14 -189 16 -184 1z"/>
<path d="M1223 2015 c5 -13 147 -19 147 -6 0 5 -34 11 -75 13 -47 2 -74 -1
-72 -7z"/>
<path d="M1935 2020 c-27 -3 -45 -8 -40 -11 16 -11 175 -10 175 0 0 12 -71 17
-135 11z"/>
<path d="M15 2010 c7 -11 65 -10 65 1 0 3 -16 6 -35 7 -21 1 -33 -3 -30 -8z"/>
<path d="M570 2011 c0 -10 145 -10 155 1 4 3 -30 6 -74 7 -45 0 -81 -3 -81 -8z"/>
<path d="M10 1770 c0 -163 1 -170 20 -170 17 0 20 -7 20 -40 l0 -40 105 0
c104 0 105 0 105 24 0 17 -7 26 -25 30 -16 4 -25 13 -25 26 0 13 -7 20 -19 20
-11 0 -22 6 -24 13 -4 9 -8 8 -17 -3 -10 -13 -11 -13 -6 3 3 10 0 17 -8 17
-15 0 -26 -30 -26 -75 0 -16 -4 -25 -8 -20 -4 6 -13 10 -21 10 -8 0 -16 6 -19
14 -3 9 0 11 9 6 11 -6 12 -5 2 6 -7 7 -13 24 -13 37 0 21 2 23 16 12 12 -11
15 -11 12 0 -2 8 2 14 9 15 6 0 15 3 18 7 4 4 -4 5 -18 2 -14 -2 -29 0 -32 6
-4 7 55 9 182 6 238 -6 223 -5 223 -21 0 -7 -8 -12 -17 -11 -16 1 -18 -11 -19
-104 -1 -58 1 -90 3 -72 4 32 6 33 36 26 28 -6 30 -5 15 10 -9 9 -24 16 -32
16 -12 0 -16 9 -15 33 2 30 2 30 6 5 3 -22 9 -27 29 -26 30 3 32 28 2 29 -22
1 -22 1 2 9 25 8 25 8 2 9 -13 1 -20 6 -17 11 3 6 -2 10 -12 11 -15 0 -15 2 4
11 43 21 53 6 53 -82 0 -47 4 -80 10 -80 6 0 10 32 10 75 0 68 2 75 20 75 19
0 20 7 20 170 l0 170 -280 0 -280 0 0 -170z m120 70 c0 -5 -7 -7 -15 -4 -8 4
-15 8 -15 10 0 2 7 4 15 4 8 0 15 -4 15 -10z m-8 -34 c7 4 8 2 4 -5 -9 -14
-36 3 -36 23 0 6 5 3 11 -7 6 -9 15 -14 21 -11z m38 -247 c0 -5 -9 -9 -20 -9
-11 0 -20 4 -20 8 0 4 9 8 20 9 11 1 20 -2 20 -8z"/>
<path d="M1230 1690 l0 -240 50 0 c36 0 52 4 56 15 5 11 21 15 60 15 53 0 54
1 54 29 0 26 -4 29 -46 35 -25 3 -50 3 -55 0 -5 -3 -9 6 -9 20 0 25 3 26 55
26 54 0 55 1 55 29 0 28 -2 29 -50 33 -28 1 -52 -1 -54 -7 -3 -5 -5 5 -5 23
l-1 32 118 1 c64 0 141 0 170 -1 49 -1 52 0 52 24 0 25 -6 29 -67 41 -19 4
-33 3 -33 -3 0 -6 -11 -9 -25 -8 -14 0 -25 4 -25 9 0 4 -16 7 -35 7 -31 0 -35
-3 -36 -27 -1 -23 -2 -24 -6 -6 -3 17 -14 23 -48 29 -24 3 -48 3 -54 -1 -8 -4
-11 17 -11 64 l0 71 87 0 c47 0 84 3 80 6 -3 3 -42 6 -86 5 -49 -1 -81 3 -81
9 0 5 -25 10 -55 10 l-55 0 0 -240z"/>
<path d="M1810 1910 c0 -5 5 -10 10 -10 6 0 10 5 10 10 0 6 -4 10 -10 10 -5 0
-10 -4 -10 -10z"/>
<path d="M831 1882 c-1 -20 3 -31 9 -27 6 3 10 1 10 -4 0 -18 -22 -12 -27 7
-5 19 -65 42 -111 42 -33 0 -75 -28 -54 -36 6 -3 12 -13 12 -23 0 -9 5 -22 12
-29 9 -9 8 -12 -4 -12 -17 0 -26 -15 -38 -69 -7 -28 -5 -34 10 -38 17 -5 17
-7 5 -20 -18 -17 -20 -37 -4 -27 8 5 10 -1 7 -19 -5 -28 15 -43 44 -32 8 3 25
1 39 -5 22 -10 21 -10 -8 -6 -18 3 -33 1 -33 -4 0 -4 -8 -10 -17 -12 -16 -3
-16 -4 0 -20 20 -20 22 -39 5 -57 -11 -11 -7 -13 21 -7 27 5 32 3 27 -9 -5
-13 0 -15 32 -8 20 4 79 7 130 5 87 -3 94 -2 99 18 3 11 9 20 14 20 13 0 11
-14 -3 -28 -9 -9 -3 -12 30 -12 23 0 42 5 42 10 0 6 11 10 24 10 25 0 41 24
29 42 -3 7 -1 8 5 4 7 -4 14 11 18 46 7 53 6 65 -8 60 -5 -1 -8 21 -8 49 l0
52 -59 -7 c-63 -7 -71 -2 -63 40 2 14 9 21 18 17 8 -3 14 0 14 6 0 6 -6 11
-13 11 -20 0 -36 -21 -30 -39 5 -12 3 -13 -6 -5 -25 23 -8 49 32 52 35 3 37 2
37 -27 0 -37 10 -44 55 -35 31 6 35 10 35 38 0 30 -2 32 -30 28 -19 -3 -30 0
-30 7 0 7 4 10 8 7 4 -2 6 11 4 30 -3 28 -8 34 -21 28 -40 -16 -51 -17 -45 -1
5 14 -6 16 -88 14 -51 -1 -98 -6 -105 -10 -6 -4 -14 -1 -16 5 -3 7 -6 -2 -6
-20z m-51 -39 c0 -18 -17 -16 -24 3 -8 22 4 40 15 23 5 -8 9 -20 9 -26z m-44
18 c-4 -5 0 -12 6 -14 7 -3 3 -6 -9 -6 -12 -1 -24 -7 -26 -13 -4 -8 -6 -7 -6
4 -1 9 -7 19 -13 22 -7 4 -3 4 10 2 12 -2 22 0 22 5 0 5 5 9 11 9 5 0 8 -4 5
-9z m301 -23 c-3 -7 -5 -2 -5 12 0 14 2 19 5 13 2 -7 2 -19 0 -25z m-208 -20
c5 -13 6 -38 4 -55 -5 -30 -8 -33 -40 -33 -29 0 -33 3 -24 13 6 8 8 16 5 20
-3 3 3 3 15 0 12 -3 21 -1 21 6 0 6 -11 11 -24 11 -14 0 -27 4 -30 9 -3 4 7 6
22 4 23 -3 24 -2 7 6 -11 5 -14 10 -7 10 6 1 11 4 11 9 -3 16 2 22 16 22 9 0
19 -10 24 -22z m-72 -4 c-3 -3 -12 -4 -19 -1 -8 3 -5 6 6 6 11 1 17 -2 13 -5z
m-43 -29 c3 -8 1 -15 -4 -15 -6 0 -10 7 -10 15 0 8 2 15 4 15 2 0 6 -7 10 -15z
m41 -17 c6 -4 2 -8 -7 -8 -10 0 -18 7 -18 17 0 9 3 12 8 7 4 -5 12 -12 17 -16z
m355 12 c0 -5 -5 -10 -11 -10 -5 0 -7 5 -4 10 3 6 8 10 11 10 2 0 4 -4 4 -10z
m-220 -55 c0 -30 -3 -35 -22 -34 -17 1 -19 2 -5 6 9 2 17 9 17 14 0 5 -8 10
-17 10 -15 1 -15 2 1 6 18 5 18 6 -5 19 l-24 13 28 1 c24 0 27 -3 27 -35z
m-147 12 c3 -8 -1 -14 -8 -14 -7 0 -11 6 -8 14 3 7 6 13 8 13 2 0 5 -6 8 -13z
m183 -6 c22 4 34 -2 34 -17 0 -17 -23 -44 -38 -44 -15 0 -22 26 -9 39 8 8 8
11 -1 11 -7 0 -12 8 -12 18 0 13 2 14 9 4 4 -7 12 -12 17 -11z m-216 -11 c0
-5 -2 -10 -4 -10 -3 0 -8 5 -11 10 -3 6 -1 10 4 10 6 0 11 -4 11 -10z m108
-42 c-11 -8 -11 -10 1 -15 10 -4 11 -7 1 -13 -15 -9 -40 -2 -40 11 0 5 10 21
23 35 19 22 23 23 25 9 2 -10 -2 -22 -10 -27z m262 16 c0 -2 -7 -4 -15 -4 -8
0 -15 4 -15 10 0 5 7 7 15 4 8 -4 15 -8 15 -10z m-386 -10 c3 -8 2 -12 -4 -9
-6 3 -10 10 -10 16 0 14 7 11 14 -7z m76 -34 c0 -36 -23 -49 -70 -39 l-35 7
40 -1 c33 -1 39 1 37 17 -3 15 13 46 24 46 2 0 4 -13 4 -30z m304 15 c3 -9 0
-15 -9 -15 -8 0 -15 7 -15 15 0 8 4 15 9 15 5 0 11 -7 15 -15z m-160 -16 c-3
-5 -13 -5 -23 1 -10 5 -22 6 -26 2 -5 -4 -5 -2 -2 4 4 6 18 9 32 7 13 -3 22
-9 19 -14z m116 3 c0 -10 -36 -9 -46 1 -4 4 5 7 19 7 15 0 27 -4 27 -8z m-333
-18 c-3 -3 -12 -4 -19 -1 -8 3 -5 6 6 6 11 1 17 -2 13 -5z m126 -64 c-15 -3
-30 -2 -32 3 -2 5 -7 3 -12 -4 -7 -11 -9 -10 -9 3 0 23 18 32 35 18 12 -10 15
-9 15 6 1 18 1 18 16 -1 14 -19 13 -20 -13 -25z m137 20 c0 -5 -2 -10 -4 -10
-3 0 -8 5 -11 10 -3 6 -1 10 4 10 6 0 11 -4 11 -10z m43 3 c-7 -2 -19 -2 -25
0 -7 3 -2 5 12 5 14 0 19 -2 13 -5z m85 -6 c13 4 14 3 3 -5 -7 -5 -17 -16 -22
-23 -6 -10 -8 -5 -8 16 0 17 3 25 5 18 3 -7 13 -9 22 -6z m39 -24 c-3 -10 -5
-4 -5 12 0 17 2 24 5 18 2 -7 2 -21 0 -30z m-367 -14 c0 -5 -9 -9 -20 -9 -11
0 -20 4 -20 8 0 4 9 8 20 9 11 1 20 -2 20 -8z m87 -11 c-3 -8 -6 -5 -6 6 -1
11 2 17 5 13 3 -3 4 -12 1 -19z m170 -4 c-3 -3 -12 -4 -19 -1 -8 3 -5 6 6 6
11 1 17 -2 13 -5z m-242 -26 c6 -4 2 -8 -7 -8 -10 0 -18 7 -18 17 0 9 3 12 8
7 4 -5 12 -12 17 -16z m-35 2 c0 -5 -8 -10 -17 -10 -15 0 -16 2 -3 10 19 12
20 12 20 0z"/>
<path d="M1810 1866 c0 -14 5 -28 10 -31 6 -3 10 5 10 19 0 14 -4 28 -10 31
-6 3 -10 -5 -10 -19z"/>
<path d="M2045 1856 l-120 -32 -22 -125 c-11 -68 -19 -126 -17 -128 2 -2 33
-3 69 -2 60 2 65 1 65 -18 0 -18 -6 -21 -50 -21 -27 0 -50 -4 -50 -10 0 -6 45
-10 115 -10 86 0 115 3 115 13 0 7 -13 12 -32 12 -23 0 -34 5 -36 18 -3 13 3
17 27 17 25 0 31 4 32 23 0 12 7 -1 16 -29 15 -51 16 -52 60 -58 25 -3 87 -5
137 -4 80 2 83 2 26 6 l-65 3 -55 72 c-30 39 -56 74 -58 77 -6 14 43 8 53 -7
8 -10 20 -14 34 -10 11 3 21 1 21 -4 0 -5 10 -9 23 -8 21 0 21 1 2 9 -17 7
-16 9 10 11 17 1 44 2 62 2 18 0 30 4 27 9 -3 4 -11 8 -19 8 -7 0 -16 11 -19
24 -5 22 -13 25 -73 31 -38 3 -77 10 -88 14 -12 5 4 6 38 3 40 -3 57 -1 57 7
0 8 8 10 23 6 15 -5 19 -4 12 3 -8 9 -138 32 -177 32 -7 0 -8 17 -4 50 5 38 4
50 -6 49 -7 0 -67 -15 -133 -33z m118 -11 c-3 -13 -13 -27 -22 -29 -38 -12
-205 -46 -208 -42 -2 2 -1 10 2 18 4 9 50 27 118 46 62 17 113 31 113 31 1 1
-1 -10 -3 -24z m34 -72 c-20 -3 -27 -9 -23 -19 4 -10 -2 -14 -18 -14 -14 0
-27 -6 -29 -12 -3 -7 -6 1 -6 18 -1 31 -1 31 52 31 28 0 39 -2 24 -4z m101
-10 c-10 -2 -26 -2 -35 0 -10 3 -2 5 17 5 19 0 27 -2 18 -5z m-92 -42 c-5 -8
-56 -3 -56 5 0 2 14 4 31 4 16 0 28 -4 25 -9z m139 -11 c29 -6 19 -7 -40 -3
-44 3 -82 7 -84 9 -8 7 83 3 124 -6z m-255 -27 c-1 -11 -26 -43 -33 -43 -4 0
-4 7 -1 15 4 9 0 15 -10 15 -9 0 -16 -7 -16 -15 0 -9 -6 -12 -17 -8 -11 4 -14
3 -9 -5 5 -8 -1 -12 -18 -12 -18 0 -24 4 -20 14 4 11 0 13 -15 9 -12 -3 -21
-9 -21 -14 0 -5 -4 -9 -10 -9 -5 0 -10 10 -10 21 0 17 4 20 22 16 12 -4 27 -2
33 3 9 7 28 11 108 18 9 1 17 -1 17 -5z m47 -45 c-3 -7 -5 -2 -5 12 0 14 2 19
5 13 2 -7 2 -19 0 -25z m211 25 c-10 -2 -28 -2 -40 0 -13 2 -5 4 17 4 22 1 32
-1 23 -4z"/>
<path d="M2020 1811 c0 -5 9 -7 20 -4 11 3 20 7 20 9 0 2 -9 4 -20 4 -11 0
-20 -4 -20 -9z"/>
<path d="M1358 1873 c6 -2 18 -2 25 0 6 3 1 5 -13 5 -14 0 -19 -2 -12 -5z"/>
<path d="M1470 1870 c8 -5 10 -10 4 -10 -7 0 -14 -11 -16 -25 l-5 -25 173 1
174 0 0 25 c0 27 1 27 -102 25 -50 -2 -78 2 -78 8 0 6 -9 11 -20 11 -11 0 -20
-4 -20 -10 0 -5 -20 -10 -45 -10 -25 0 -45 5 -45 10 0 6 -8 10 -17 10 -15 0
-16 -2 -3 -10z"/>
<path d="M1698 1873 c7 -3 16 -2 19 1 4 3 -2 6 -13 5 -11 0 -14 -3 -6 -6z"/>
<path d="M1377 1840 c-16 -19 -16 -20 16 -20 22 0 28 3 18 9 -7 5 -10 14 -7
20 12 19 -9 12 -27 -9z"/>
<path d="M1810 1780 c0 -11 5 -20 10 -20 6 0 10 9 10 20 0 11 -4 20 -10 20 -5
0 -10 -9 -10 -20z"/>
<path d="M1708 1763 c6 -2 18 -2 25 0 6 3 1 5 -13 5 -14 0 -19 -2 -12 -5z"/>
<path d="M1690 1725 c0 -24 3 -25 55 -25 52 0 55 1 55 25 0 24 -3 25 -55 25
-52 0 -55 -1 -55 -25z"/>
<path d="M1152 1695 c0 -16 2 -22 5 -12 2 9 2 23 0 30 -3 6 -5 -1 -5 -18z"/>
<path d="M1460 1625 c0 -35 2 -37 26 -31 14 4 23 3 21 -2 -3 -4 10 -6 29 -4
30 4 34 8 34 33 0 24 -4 29 -24 29 -13 0 -38 3 -55 6 -30 6 -31 6 -31 -31z"/>
<path d="M1598 1653 c12 -2 30 -2 40 0 9 3 -1 5 -23 4 -22 0 -30 -2 -17 -4z"/>
<path d="M1690 1626 l0 -36 55 0 c54 0 55 0 55 30 0 27 -3 30 -32 30 -18 0
-43 3 -55 6 -21 6 -23 3 -23 -30z"/>
<path d="M289 1634 c0 -2 -1 -23 -1 -46 -1 -37 2 -43 22 -46 15 -3 21 1 17 10
-2 7 -10 12 -16 11 -6 -2 -11 2 -11 7 0 6 21 10 48 11 26 0 41 3 34 6 -6 2
-10 9 -6 14 3 5 -14 9 -38 10 -35 1 -38 2 -18 8 l25 7 -27 6 c-16 3 -28 4 -29
2z"/>
<path d="M1630 1630 c0 -6 -10 -15 -22 -20 -21 -8 -22 -9 -3 -11 11 -1 23 -1
28 0 4 0 7 -4 7 -11 0 -9 3 -9 11 -1 12 12 3 53 -12 53 -5 0 -9 -5 -9 -10z"/>
<path d="M2241 1623 c7 -12 15 -20 18 -17 3 2 -3 12 -13 22 -17 16 -18 16 -5
-5z"/>
<path d="M1598 1623 c7 -3 16 -2 19 1 4 3 -2 6 -13 5 -11 0 -14 -3 -6 -6z"/>
<path d="M2397 1585 c21 -24 40 -41 42 -39 2 2 -2 11 -10 20 -13 16 -10 17 29
12 23 -4 42 -2 42 3 0 5 -8 9 -17 10 -34 1 -67 10 -95 23 -27 14 -27 13 9 -29z"/>
<path d="M2312 1596 c4 -20 2 -26 -8 -22 -8 3 -14 2 -14 -3 0 -5 26 -9 58 -9
32 0 48 3 35 6 -12 4 -34 18 -49 31 l-27 23 5 -26z"/>
<path d="M1588 1583 c7 -3 16 -2 19 1 4 3 -2 6 -13 5 -11 0 -14 -3 -6 -6z"/>
<path d="M1460 1513 l0 -33 109 0 c106 0 110 1 114 23 l4 22 2 -22 c1 -21 6
-23 56 -23 54 0 55 0 55 30 0 17 -1 30 -3 30 -1 0 -17 -4 -34 -9 -18 -5 -35
-6 -38 -1 -3 5 7 11 22 13 23 3 21 4 -9 6 -21 0 -38 -3 -38 -9 0 -5 -12 -7
-27 -5 -16 3 -70 7 -120 8 l-93 3 0 -33z"/>
<path d="M2450 1543 c0 -18 46 -34 86 -30 l39 4 -44 1 c-25 1 -52 9 -63 19
-10 9 -18 12 -18 6z"/>
<path d="M270 1477 c0 -22 5 -24 51 -26 42 -1 50 1 46 14 -4 8 1 19 11 24 13
8 1 10 -45 11 -59 0 -63 -1 -63 -23z"/>
<path d="M140 1470 c0 -13 6 -19 18 -17 9 1 17 7 18 12 0 6 13 13 30 16 24 6
21 7 -18 8 -42 1 -48 -2 -48 -19z"/>
<path d="M450 1460 c0 -15 7 -20 25 -20 29 0 32 8 8 26 -25 19 -33 17 -33 -6z"/>
<path d="M1810 1470 c0 -5 5 -10 10 -10 6 0 10 5 10 10 0 6 -4 10 -10 10 -5 0
-10 -4 -10 -10z"/>
<path d="M12 1406 c-3 -5 0 -6 6 -2 7 4 12 2 12 -4 0 -7 36 -10 110 -9 61 1
110 6 110 11 0 4 -17 8 -37 8 -21 1 -73 2 -116 3 -44 1 -81 -2 -85 -7z"/>
<path d="M260 1403 c0 -12 30 -19 55 -13 6 1 40 2 78 2 37 0 67 4 67 9 0 10
-3 10 -117 13 -61 1 -83 -2 -83 -11z"/>
<path d="M470 1403 c0 -7 15 -12 40 -11 23 0 40 5 40 12 0 6 -17 11 -40 11
-24 0 -40 -5 -40 -12z"/>
<path d="M620 1403 c0 -10 33 -12 137 -10 186 3 189 22 3 22 -105 0 -140 -3
-140 -12z"/>
<path d="M913 1405 c6 -17 43 -17 57 0 12 14 9 16 -24 13 -20 -1 -35 -7 -33
-13z"/>
<path d="M1240 1403 c0 -13 207 -16 215 -3 8 13 -49 19 -64 7 -9 -7 -12 -8 -8
-1 4 7 -18 10 -68 10 -51 -1 -75 -5 -75 -13z"/>
<path d="M1470 1404 c0 -7 25 -11 70 -11 42 1 70 5 70 12 0 6 -28 10 -70 10
-45 0 -70 -4 -70 -11z"/>
<path d="M1880 1404 c0 -8 5 -12 10 -9 6 4 8 11 5 16 -9 14 -15 11 -15 -7z"/>
<path d="M1913 1403 c0 -9 17 -12 54 -12 69 2 69 16 0 21 -38 2 -54 -1 -54 -9z"/>
<path d="M2286 1413 c-1 -2 -60 -4 -130 -4 -69 0 -126 -4 -126 -9 0 -5 72 -8
160 -8 88 0 160 3 160 8 0 8 -57 20 -64 13z"/>
<path d="M2398 1412 c-65 -5 -42 -23 27 -21 36 1 65 5 65 9 0 10 -46 16 -92
12z"/>
<path d="M1620 1401 c0 -6 15 -10 33 -10 17 0 41 0 52 -1 95 -1 106 0 100 9
-8 14 -185 15 -185 2z"/>
<path d="M2500 1400 c0 -5 16 -9 35 -8 23 1 31 4 23 9 -18 12 -58 11 -58 -1z"/>
<path d="M18 1359 c-17 -11 6 -18 55 -16 22 0 36 5 34 11 -4 12 -71 16 -89 5z"/>
<path d="M637 1362 c-39 -8 -13 -18 43 -18 34 1 60 5 60 11 0 10 -65 14 -103
7z"/>
<path d="M1240 1356 c0 -13 94 -15 106 -3 8 7 -2 9 -66 12 -23 1 -40 -3 -40
-9z"/>
<path d="M1884 1358 c-3 -4 -2 -8 3 -9 4 0 27 -2 50 -5 23 -2 45 1 48 6 7 11
5 12 -53 14 -24 1 -45 -2 -48 -6z"/>
<path d="M2003 1356 c5 -16 27 -19 27 -3 0 7 -7 14 -15 14 -9 0 -14 -5 -12
-11z"/>
<path d="M2046 1361 c-4 -7 -5 -15 -2 -18 9 -9 19 4 14 18 -4 11 -6 11 -12 0z"/>
<path d="M1410 1035 l0 -245 280 0 280 0 0 245 0 245 -54 0 c-52 0 -55 -1 -59
-27 l-4 -28 -2 28 -1 27 -220 0 -220 0 0 -245z m249 144 c-10 -6 -7 -9 11 -10
14 0 19 -3 12 -6 -20 -8 -42 5 -36 22 3 8 11 12 16 9 6 -4 5 -10 -3 -15z m198
-26 c-3 -10 -5 -2 -5 17 0 19 2 27 5 18 2 -10 2 -26 0 -35z m-373 8 c3 -5 -1
-11 -9 -15 -22 -8 -18 -36 7 -63 17 -18 18 -23 6 -23 -21 0 -34 19 -37 57 -3
44 17 71 33 44z m41 -49 c-8 -9 -25 20 -18 31 3 5 10 2 15 -7 6 -10 7 -20 3
-24z m-25 -152 c0 -5 -2 -10 -4 -10 -3 0 -8 5 -11 10 -3 6 -1 10 4 10 6 0 11
-4 11 -10z"/>
<path d="M2123 1260 c-3 -11 -14 -20 -24 -20 -47 0 -48 -94 -1 -115 19 -8 22
-18 22 -61 0 -43 -3 -53 -20 -57 -29 -8 -46 -51 -32 -82 15 -32 39 -42 63 -27
26 16 27 16 27 -15 0 -30 35 -65 57 -57 17 7 39 59 30 73 -4 7 14 11 55 11 36
0 59 -4 55 -10 -10 -16 6 -60 27 -71 27 -14 58 14 58 53 0 31 2 33 29 16 25
-15 49 -4 61 28 13 34 -7 78 -38 82 -20 3 -22 9 -22 58 0 40 4 54 14 54 25 0
46 30 46 64 0 36 -15 56 -42 56 -11 0 -18 7 -18 20 0 19 -7 20 -171 20 -162 0
-171 -1 -176 -20z m37 0 c0 -6 53 -10 140 -10 87 0 140 4 140 10 0 6 5 10 10
10 6 0 10 -50 10 -130 0 -123 -1 -130 -20 -130 -13 0 -20 7 -20 20 0 16 -7 20
-35 20 -29 0 -35 -4 -36 -22 l0 -23 -9 23 c-7 17 -17 22 -45 22 -29 0 -35 -4
-36 -22 l-2 -23 -4 23 c-6 31 -72 33 -80 2 -3 -11 -12 -20 -19 -20 -11 0 -14
26 -14 130 0 80 4 130 10 130 6 0 10 -4 10 -10z m-47 -67 c-7 -2 -19 -2 -25 0
-7 3 -2 5 12 5 14 0 19 -2 13 -5z m15 -240 c-4 -23 -48 -31 -48 -10 0 9 6 18
13 20 25 11 38 7 35 -10z m120 5 c-6 -18 -85 -20 -92 -2 -4 11 6 14 45 14 36
0 49 -4 47 -12z m192 -2 c0 -10 -13 -14 -44 -14 -29 0 -46 5 -50 14 -4 11 6
14 44 14 37 0 50 -4 50 -14z m-22 -73 c-10 -2 -26 -2 -35 0 -10 3 -2 5 17 5
19 0 27 -2 18 -5z m-208 -23 c0 -5 -4 -10 -10 -10 -5 0 -10 5 -10 10 0 6 5 10
10 10 6 0 10 -4 10 -10z"/>
<path d="M2230 1220 c0 -18 7 -20 65 -20 58 0 65 2 65 20 0 18 -7 20 -65 20
-58 0 -65 -2 -65 -20z"/>
<path d="M2210 1180 c0 -6 37 -10 90 -10 53 0 90 4 90 10 0 6 -37 10 -90 10
-53 0 -90 -4 -90 -10z"/>
<path d="M2160 1110 l0 -50 140 0 140 0 0 50 0 50 -140 0 -140 0 0 -50z"/>
<path d="M2098 943 c7 -3 16 -2 19 1 4 3 -2 6 -13 5 -11 0 -14 -3 -6 -6z"/>
<path d="M718 1198 c-2 -35 -2 -134 0 -220 l3 -158 118 0 c94 0 120 3 124 14
4 9 14 12 27 9 15 -4 18 -8 10 -13 -7 -4 71 -8 174 -9 l186 -2 0 221 0 220
-320 0 -319 0 -3 -62z m302 4 c-8 -4 -15 -16 -15 -26 0 -11 -6 -21 -14 -24
-10 -3 -13 2 -9 21 4 18 0 27 -11 30 -9 3 2 5 24 5 22 0 33 -2 25 -6z m8 -113
c-2 -36 -7 -48 -16 -44 -8 3 -20 5 -28 5 -11 0 -14 9 -11 33 3 20 9 31 18 29
9 -1 7 3 -4 12 -18 14 -17 15 5 18 35 6 39 0 36 -53z m32 49 c0 6 7 12 15 12
12 0 15 -15 15 -75 0 -61 -3 -75 -15 -75 -17 0 -17 30 0 42 6 5 5 8 -3 8 -7 0
-11 4 -8 9 8 13 -4 42 -15 35 -5 -3 -9 0 -9 5 0 6 6 11 13 12 10 0 10 2 0 6
-7 2 -13 12 -13 21 0 15 2 15 10 2 6 -10 10 -11 10 -2z m119 -15 c-1 -37 -13
-50 -39 -42 l-25 7 25 2 25 2 -25 8 c-14 4 -19 8 -12 9 6 1 12 6 12 12 0 5 -4
8 -9 4 -5 -3 -12 -1 -16 5 -4 6 8 10 29 10 28 0 36 -4 35 -17z"/>
<path d="M13 1045 c3 -114 7 -208 9 -209 1 -2 149 -6 327 -10 l324 -6 -6 206
c-3 113 -7 207 -9 209 -2 1 -149 5 -327 9 l-324 6 6 -205z m383 55 c17 0 19
-36 2 -46 -7 -4 -8 -3 -4 4 4 7 3 12 -2 12 -5 0 -14 12 -20 26 -17 35 -58 31
-55 -6 3 -23 2 -24 -11 -7 -10 13 -16 15 -21 6 -4 -6 -4 -14 1 -18 5 -3 10
-19 12 -36 4 -48 10 -55 41 -55 24 0 34 7 46 30 9 17 17 30 19 30 1 0 3 -15 4
-34 1 -31 -2 -35 -29 -41 -24 -6 -28 -9 -18 -21 6 -8 8 -14 3 -14 -5 0 -2 -5
6 -10 10 -7 -5 -9 -50 -8 -63 1 -64 1 -20 8 41 6 42 7 11 8 -32 2 -33 3 -16
15 17 13 16 14 -14 20 -26 6 -31 11 -31 36 0 16 6 31 15 35 8 3 15 13 15 22 0
10 -5 14 -15 10 -11 -4 -15 1 -15 18 0 28 65 62 99 51 14 -4 22 -2 22 7 1 7 4
1 6 -14 2 -16 11 -28 19 -28z m214 -70 l0 -119 -28 16 c-21 12 -29 24 -29 46
0 25 4 28 24 24 27 -5 29 -1 9 19 -11 10 -15 11 -18 2 -3 -7 -7 -2 -11 11 -4
18 -1 24 14 28 22 6 26 23 5 23 -8 0 -18 5 -21 10 -8 13 14 42 25 35 4 -3 10
2 14 10 12 33 16 10 16 -105z m-499 92 c-7 -2 -18 1 -23 6 -8 8 -4 9 13 5 13
-4 18 -8 10 -11z m-7 -24 c-3 -5 -10 -6 -15 -3 -14 9 -10 -17 5 -37 7 -10 18
-18 25 -18 17 0 13 -18 -6 -29 -17 -10 -16 -10 2 -11 15 0 17 -2 6 -9 -11 -7
-11 -9 0 -14 11 -3 10 -6 -4 -12 -15 -6 -16 -9 -2 -19 12 -9 9 -14 -20 -34
l-35 -22 -1 52 c-1 29 -2 83 -3 119 l-1 65 27 -10 c15 -5 24 -14 22 -18z m124
-1 c6 3 12 0 12 -7 0 -6 -4 -8 -10 -5 -5 3 -10 -1 -10 -9 0 -9 5 -16 10 -16
16 0 12 -67 -4 -73 -8 -3 -17 -1 -20 6 -2 7 -5 4 -5 -5 -1 -17 -2 -17 -19 0
-17 16 -17 17 3 23 11 3 25 2 30 -2 7 -5 11 2 12 19 1 15 -1 22 -3 15 -3 -7
-12 -9 -20 -6 -13 5 -13 7 -2 14 10 6 9 11 -7 23 -37 28 -62 14 -30 -17 13
-13 13 -16 0 -21 -20 -7 -19 -46 0 -46 22 0 18 -27 -5 -40 -19 -10 -20 -8 -20
79 l0 90 38 -13 c20 -7 43 -11 50 -9z m297 1 c11 -10 -34 -20 -57 -12 -22 7
-22 7 -3 15 22 8 51 6 60 -3z m-165 -19 c0 -5 -7 -9 -15 -9 -9 0 -12 6 -9 15
6 15 24 11 24 -6z m90 -8 c0 -6 -4 -13 -10 -16 -5 -3 -10 1 -10 9 0 9 5 16 10
16 6 0 10 -4 10 -9z m40 -29 c-8 -3 -1 -10 16 -18 29 -14 29 -14 -13 -9 -26 3
-43 1 -43 -5 0 -5 8 -11 18 -12 9 0 22 -2 27 -3 6 -2 15 -3 22 -4 12 -1 14
-71 2 -71 -15 0 -44 30 -44 46 0 9 -6 19 -14 22 -10 3 -12 0 -8 -11 4 -11 2
-14 -9 -10 -8 3 -14 18 -14 34 0 26 9 34 34 30 5 -1 6 5 3 13 -4 10 -1 13 9 9
8 -3 14 1 15 8 0 11 2 11 6 0 3 -8 0 -17 -7 -19z m40 13 c0 -8 -4 -15 -10 -15
-5 0 -10 7 -10 15 0 8 5 15 10 15 6 0 10 -7 10 -15z m-197 -162 c-7 -2 -19 -2
-25 0 -7 3 -2 5 12 5 14 0 19 -2 13 -5z m-35 -44 c-3 -8 -7 -3 -11 10 -4 17
-3 21 5 13 5 -5 8 -16 6 -23z"/>
<path d="M580 970 c-11 -7 -12 -12 -4 -20 8 -8 13 -6 17 9 3 12 4 21 4 21 -1
0 -9 -5 -17 -10z"/>
<path d="M70 1050 c0 -5 5 -10 11 -10 5 0 7 5 4 10 -3 6 -8 10 -11 10 -2 0 -4
-4 -4 -10z"/>
<path d="M70 999 c0 -5 5 -7 10 -4 6 3 10 8 10 11 0 2 -4 4 -10 4 -5 0 -10 -5
-10 -11z"/>
<path d="M73 945 c0 -8 4 -12 9 -9 5 3 6 10 3 15 -9 13 -12 11 -12 -6z"/>
<path d="M150 970 c0 -5 5 -10 10 -10 6 0 10 5 10 10 0 6 -4 10 -10 10 -5 0
-10 -4 -10 -10z"/>
<path d="M494 971 c4 -6 2 -11 -4 -11 -6 0 -8 -4 -5 -10 3 -5 12 -10 20 -10
17 0 13 32 -5 38 -7 3 -10 0 -6 -7z"/>
<path d="M2042 1114 c-25 -17 -30 -72 -10 -92 22 -22 58 -14 69 15 21 57 -17
107 -59 77z m35 -30 c-3 -3 -12 -4 -19 -1 -8 3 -5 6 6 6 11 1 17 -2 13 -5z"/>
<path d="M2511 1111 c-36 -36 -21 -101 24 -101 47 0 61 79 18 107 -19 13 -24
12 -42 -6z m47 -44 c3 -12 -3 -17 -22 -17 -25 0 -35 18 -19 34 12 12 38 2 41
-17z"/>
<path d="M2261 872 c-16 -39 0 -82 32 -82 31 0 47 18 47 55 0 59 -58 78 -79
27z m58 -29 c-1 -17 -3 -21 -6 -11 -3 14 -9 16 -23 8 -17 -9 -20 -2 -11 28 1
1 10 2 21 2 15 0 20 -6 19 -27z"/>
<path d="M58 762 c-27 -2 -48 -7 -48 -12 0 -6 58 -10 138 -9 116 0 133 2 108
13 -17 7 -52 9 -87 6 -32 -3 -60 -3 -61 0 -2 3 -24 4 -50 2z"/>
<path d="M371 758 c-11 -4 -34 -5 -51 -3 -16 2 -30 -1 -30 -6 0 -11 -15 -10
190 -10 105 0 166 4 168 11 2 6 -31 10 -95 9 -54 0 -112 1 -130 3 -17 2 -41 1
-52 -4z"/>
<path d="M928 764 c-3 -2 -29 -6 -57 -6 -28 -1 -51 -6 -51 -10 0 -8 112 -11
265 -8 107 2 105 2 105 13 0 5 -11 7 -25 5 -14 -3 -28 -1 -31 4 -3 4 -9 6 -14
3 -13 -8 -164 -10 -176 -2 -6 3 -14 4 -16 1z"/>
<path d="M1897 763 c-3 -2 -35 -5 -71 -4 -36 0 -66 -4 -66 -8 0 -13 46 -17
125 -11 63 5 67 6 43 17 -14 6 -28 9 -31 6z"/>
<path d="M2020 754 c0 -8 10 -14 23 -15 43 -2 172 3 176 7 14 14 -33 19 -92
11 -15 -2 -45 -1 -67 3 -31 6 -40 4 -40 -6z"/>
<path d="M2248 762 c-38 -8 -15 -19 42 -21 45 -1 60 2 60 12 0 13 -57 18 -102
9z"/>
<path d="M2378 762 c-10 -2 -18 -10 -18 -18 0 -16 9 -18 29 -5 18 12 10 28
-11 23z"/>
<path d="M2419 753 c-12 -15 -12 -16 4 -10 9 3 17 3 17 -1 0 -4 25 -7 55 -7
35 0 55 4 55 12 0 7 -19 11 -50 11 -28 1 -54 3 -59 6 -5 3 -15 -2 -22 -11z"/>
<path d="M720 750 c0 -5 20 -10 45 -10 25 0 45 5 45 10 0 6 -20 10 -45 10 -25
0 -45 -4 -45 -10z"/>
<path d="M1200 749 c0 -5 27 -9 60 -9 33 0 60 4 60 9 0 5 -27 10 -60 10 -33 0
-60 -4 -60 -10z"/>
<path d="M1410 750 c0 -6 40 -10 95 -10 52 0 95 3 95 8 0 4 -43 8 -95 9 -56 2
-95 -1 -95 -7z"/>
<path d="M1610 751 c0 -11 12 -13 65 -13 56 0 75 2 75 10 0 4 -32 8 -70 10
-45 2 -70 0 -70 -7z"/>
<path d="M15 700 c3 -5 31 -10 61 -10 30 0 54 5 54 10 0 6 -27 10 -61 10 -37
0 -58 -4 -54 -10z"/>
<path d="M720 700 c0 -5 18 -10 40 -10 22 0 40 5 40 10 0 6 -18 10 -40 10 -22
0 -40 -4 -40 -10z"/>
<path d="M810 700 c0 -5 5 -10 10 -10 6 0 10 5 10 10 0 6 -4 10 -10 10 -5 0
-10 -4 -10 -10z"/>
<path d="M1410 701 c0 -5 16 -9 35 -9 19 0 35 4 35 9 0 5 -16 9 -35 9 -19 0
-35 -4 -35 -9z"/>
<path d="M2020 700 c0 -5 23 -10 50 -10 28 0 50 5 50 10 0 6 -22 10 -50 10
-27 0 -50 -4 -50 -10z"/>
<path d="M650 386 c0 -240 0 -244 21 -249 13 -4 36 3 58 18 34 21 48 23 163
23 l125 0 81 68 81 68 -31 58 c-18 31 -35 55 -39 52 -4 -2 -6 4 -5 14 1 18 0
18 -53 8 -28 -5 -32 -4 -21 9 16 19 5 34 -20 28 -27 -7 -49 18 -53 62 -3 30
-10 40 -33 50 -26 10 -203 35 -254 35 -19 0 -20 -8 -20 -244z m193 177 c-7 -2
-21 -2 -30 0 -10 3 -4 5 12 5 17 0 24 -2 18 -5z m-3 -128 c0 -12 -21 -25 -41
-25 -17 0 -9 38 9 43 22 5 32 -1 32 -18z m170 10 c0 -11 -54 -26 -69 -19 -12
5 -8 9 14 14 39 10 55 11 55 5z m-94 -27 c4 -7 3 -8 -5 -4 -8 6 -10 -10 -5
-62 9 -95 -9 -102 -31 -11 -15 60 -16 73 -4 80 19 12 37 11 45 -3z m-76 -64
c0 -19 -6 -42 -14 -49 -11 -12 -14 -8 -19 28 -6 46 -3 57 19 57 9 0 14 -11 14
-36z m120 21 c-7 -9 -15 -13 -19 -10 -3 3 1 10 9 15 21 14 24 12 10 -5z m164
-17 c-3 -4 2 -18 11 -32 14 -22 14 -24 -1 -30 -12 -4 -15 -2 -10 9 3 8 1 15
-5 15 -6 0 -7 5 -4 10 3 6 1 10 -5 10 -6 0 -8 5 -5 10 3 6 -1 10 -9 10 -20 0
-20 -2 -1 -46 13 -32 13 -37 0 -51 -8 -8 -15 -11 -15 -6 0 5 5 14 12 21 9 9 8
12 -5 12 -10 0 -14 5 -11 15 7 18 -9 20 -24 2 -7 -8 -6 -18 4 -31 16 -23 19
-40 4 -31 -5 3 -10 1 -10 -4 0 -6 -4 -11 -9 -11 -5 0 -7 9 -4 20 3 13 -1 22
-11 26 -15 6 -15 7 0 19 12 8 14 14 6 19 -17 10 -15 23 4 30 14 5 15 4 5 -8
-8 -9 -8 -16 -2 -20 14 -9 26 14 23 44 -1 14 1 20 4 13 3 -7 12 -9 20 -6 7 3
11 9 8 15 -3 5 3 4 14 -3 12 -7 19 -16 16 -21z"/>
<path d="M1240 380 l0 -240 300 0 300 0 0 240 0 240 -300 0 -300 0 0 -240z
m127 -46 c-3 -3 -12 -4 -19 -1 -8 3 -5 6 6 6 11 1 17 -2 13 -5z m363 -64 c0
-6 -17 -10 -40 -8 -22 1 -40 6 -40 10 0 4 18 8 40 8 22 0 40 -5 40 -10z"/>
<path d="M222 554 c-11 -49 -9 -64 9 -64 6 0 7 4 4 10 -3 5 -1 18 4 27 9 16
10 16 11 -4 0 -15 7 -23 23 -25 12 -2 21 -9 19 -16 -1 -6 5 -12 14 -12 9 0 12
5 8 12 -5 8 0 9 17 5 13 -4 30 -7 37 -7 18 0 15 -27 -4 -34 -19 -7 -84 3 -82
13 4 35 -26 44 -37 11 -5 -16 -10 -18 -26 -10 -11 6 -19 7 -19 1 0 -5 -9 -7
-20 -4 -11 3 -17 9 -14 15 3 5 -6 6 -22 2 -16 -4 -25 -3 -21 3 3 5 -6 8 -23 5
-20 -3 -30 -11 -35 -29 -7 -31 -2 -37 50 -53 36 -12 37 -14 17 -21 -25 -9 -30
-44 -8 -52 9 -4 19 5 26 24 7 16 13 29 15 29 9 0 65 -23 65 -26 0 -3 -7 -34
-16 -69 -14 -53 -19 -62 -33 -55 -9 4 -29 13 -45 19 -28 11 -28 12 -10 32 15
17 16 22 4 29 -18 11 -30 3 -30 -21 0 -19 -24 -27 -34 -10 -3 5 -15 11 -26 14
-18 5 -19 3 -5 -16 14 -20 87 -55 130 -61 11 -2 28 -7 37 -11 13 -5 20 0 28
19 5 14 12 26 15 26 6 0 142 -71 173 -91 21 -13 26 -10 95 59 55 56 69 75 58
81 -14 9 -13 29 5 118 l6 31 -58 12 c-33 6 -72 14 -88 17 -25 4 -28 3 -22 -12
5 -14 4 -16 -7 -6 -11 9 -12 22 -4 61 5 28 6 54 2 58 -4 4 -10 1 -12 -6 -4
-10 -8 -10 -20 -1 -19 16 -53 19 -53 5 0 -7 -3 -6 -8 1 -4 7 -16 12 -27 11
-11 0 -27 2 -37 6 -13 6 -18 -2 -26 -40z m205 -121 c-7 -7 -22 -10 -34 -7 -31
8 -22 19 16 19 24 0 28 -3 18 -12z m124 -2 c4 -3 2 -32 -5 -64 -11 -52 -14
-57 -26 -42 -11 13 -11 18 -1 25 9 5 5 11 -15 18 l-29 10 40 17 39 17 -32 14
c-18 7 -32 16 -32 19 0 7 52 -5 61 -14z m-249 -52 c-28 -11 -28 -36 -1 -44 23
-8 42 11 34 33 -2 6 1 12 6 12 7 0 9 -9 5 -22 -3 -13 -6 -29 -6 -36 0 -9 -7
-11 -22 -7 -20 5 -21 5 -5 -5 10 -7 26 -9 35 -6 12 4 10 0 -5 -13 -12 -10 -19
-21 -16 -25 10 -9 23 -7 23 4 0 5 11 20 25 34 16 16 25 20 25 11 0 -8 -5 -17
-10 -20 -6 -4 -8 -10 -5 -15 3 -4 2 -17 -2 -28 -8 -19 -8 -19 -60 1 -29 11
-53 24 -53 28 0 11 23 7 32 -6 5 -6 8 -3 8 7 0 9 -12 21 -27 26 -22 8 -24 11
-8 11 15 1 17 3 6 10 -9 6 -11 18 -7 39 6 24 11 29 28 24 l22 -5 -22 -8z m108
-29 c0 -5 -2 -10 -4 -10 -3 0 -8 5 -11 10 -3 6 -1 10 4 10 6 0 11 -4 11 -10z
m76 -2 c-9 -5 -16 -20 -16 -33 0 -14 -5 -25 -10 -25 -6 0 -8 11 -4 25 4 15 2
25 -5 25 -27 0 -8 15 20 16 24 1 28 -1 15 -8z m-42 -74 c9 -3 16 -12 16 -20 0
-11 -5 -11 -25 -2 -32 15 -24 35 9 22z"/>
<path d="M2060 560 c0 -18 -7 -20 -60 -20 -47 0 -60 -3 -60 -15 0 -10 -10 -15
-30 -15 l-30 0 0 -110 0 -110 28 0 c18 0 23 -3 14 -9 -11 -6 -10 -11 3 -25 31
-31 55 -37 180 -46 214 -15 435 10 435 50 0 22 2 25 21 32 17 7 19 18 19 113
l0 105 -30 0 c-20 0 -30 5 -30 15 0 11 -13 15 -54 15 -46 0 -56 3 -61 20 -6
19 -15 20 -176 20 -162 0 -169 -1 -169 -20z m393 -37 c-7 -2 -21 -2 -30 0 -10
3 -4 5 12 5 17 0 24 -2 18 -5z m-124 -45 c0 -16 -2 -18 -6 -8 -3 8 -11 18 -17
22 -7 5 -4 8 7 8 11 0 17 -7 16 -22z m-79 -150 c0 -4 -16 -8 -35 -8 -31 0 -35
-3 -35 -25 0 -21 -5 -25 -27 -24 -17 1 -21 3 -10 6 21 6 22 19 2 27 -30 11
-14 25 33 28 26 2 53 3 60 4 6 0 12 -3 12 -8z"/>
<path d="M66 393 c-10 -10 -7 -41 6 -49 7 -4 8 -3 4 4 -4 7 -2 12 3 12 13 0
15 27 2 34 -4 3 -11 3 -15 -1z"/>
<path d="M180 339 c-8 -14 -9 -24 -2 -31 14 -14 32 -1 32 22 0 28 -17 33 -30
9z"/>
<path d="M44 329 c-9 -15 13 -36 25 -23 6 5 4 14 -4 21 -10 9 -16 10 -21 2z"/>
<path d="M160 277 c0 -8 6 -20 14 -26 10 -9 15 -8 19 4 4 9 -2 19 -13 25 -16
8 -20 8 -20 -3z"/>
<path d="M16 102 c-13 -12 -5 -22 19 -22 14 0 25 4 25 9 0 10 -36 21 -44 13z"/>
<path d="M193 103 c-31 -6 -29 -23 2 -23 16 0 25 6 25 15 0 8 -1 14 -2 14 -2
-1 -13 -4 -25 -6z"/>
<path d="M248 103 c-27 -7 -21 -23 7 -23 14 0 25 4 25 9 0 13 -12 18 -32 14z"/>
<path d="M517 103 c-15 -14 -6 -23 24 -23 27 0 29 2 15 15 -16 16 -29 19 -39
8z"/>
<path d="M644 101 c-13 -14 4 -19 66 -20 39 -1 70 3 70 8 0 9 -128 20 -136 12z"/>
<path d="M1032 102 c-25 -8 -10 -21 23 -20 19 1 35 4 35 8 0 9 -41 18 -58 12z"/>
<path d="M1243 97 c-3 -5 -1 -12 6 -16 14 -9 81 -1 81 9 0 11 -80 17 -87 7z"/>
<path d="M1358 103 c-31 -7 -19 -23 17 -23 19 0 35 2 35 5 0 9 -36 21 -52 18z"/>
<path d="M1487 102 c-9 -2 -17 -8 -17 -13 0 -5 29 -9 65 -9 45 0 65 4 65 13 0
11 -70 17 -113 9z"/>
<path d="M1890 94 c0 -8 9 -14 20 -14 11 0 20 4 20 9 0 5 -9 11 -20 14 -13 3
-20 0 -20 -9z"/>
<path d="M2104 99 c-2 -5 -11 -6 -19 -2 -8 3 -15 0 -15 -6 0 -7 20 -11 50 -11
28 0 50 4 50 9 0 11 -59 20 -66 10z"/>
<path d="M2180 93 c0 -8 26 -12 85 -12 59 0 85 4 85 12 0 8 -26 12 -85 12 -59
0 -85 -4 -85 -12z"/>
<path d="M2363 97 c-9 -15 5 -20 54 -18 26 1 73 2 103 2 35 0 49 4 40 9 -21
12 -190 18 -197 7z"/>
<path d="M70 90 c0 -5 20 -10 45 -10 25 0 45 5 45 10 0 6 -20 10 -45 10 -25 0
-45 -4 -45 -10z"/>
<path d="M290 90 c0 -12 179 -14 199 -1 8 5 -28 9 -93 10 -68 1 -106 -2 -106
-9z"/>
<path d="M790 91 c0 -7 42 -10 110 -10 61 0 110 4 110 8 0 5 -49 9 -110 10
-69 1 -110 -2 -110 -8z"/>
<path d="M1420 90 c0 -5 9 -10 20 -10 11 0 20 5 20 10 0 6 -9 10 -20 10 -11 0
-20 -4 -20 -10z"/>
<path d="M1610 90 c0 -6 24 -10 55 -10 30 0 55 4 55 8 0 5 -25 10 -55 11 -32
1 -55 -3 -55 -9z"/>
<path d="M1730 88 c0 -4 21 -8 46 -8 27 0 43 4 39 10 -7 12 -85 10 -85 -2z"/>
<path d="M1942 89 c2 -6 7 -10 11 -10 4 1 30 1 57 1 28 0 50 5 50 10 0 6 -27
10 -61 10 -39 0 -59 -4 -57 -11z"/>
<path d="M33 53 c-18 -7 -16 -23 2 -23 8 0 15 7 15 15 0 8 -1 15 -2 14 -2 0
-9 -3 -15 -6z"/>
<path d="M652 52 c-27 -9 -9 -22 28 -22 22 0 40 4 40 9 0 10 -50 19 -68 13z"/>
<path d="M1248 49 c-6 -4 -6 -9 -1 -12 14 -9 233 -4 233 5 0 4 -12 8 -27 9
-117 4 -196 3 -205 -2z"/>
<path d="M1890 45 c0 -8 5 -15 10 -15 6 0 10 7 10 15 0 8 -4 15 -10 15 -5 0
-10 -7 -10 -15z"/>
<path d="M60 40 c0 -5 5 -10 10 -10 6 0 10 5 10 10 0 6 -4 10 -10 10 -5 0 -10
-4 -10 -10z"/>
<path d="M730 40 c0 -5 4 -10 9 -10 6 0 13 5 16 10 3 6 -1 10 -9 10 -9 0 -16
-4 -16 -10z"/>
<path d="M1920 38 c0 -5 5 -6 10 -3 6 3 10 2 10 -3 0 -6 9 -8 20 -5 35 9 32
21 -5 21 -19 0 -35 -4 -35 -10z"/>
</g>
</svg>
