<?xml version="1.0" standalone="no"?>
<!DOCTYPE svg PUBLIC "-//W3C//DTD SVG 20010904//EN"
 "http://www.w3.org/TR/2001/REC-SVG-20010904/DTD/svg10.dtd">
<svg version="1.0" xmlns="http://www.w3.org/2000/svg"
 width="260.000000pt" height="260.000000pt" viewBox="0 0 260.000000 260.000000"
 preserveAspectRatio="xMidYMid meet">
<metadata>
Created by potrace 1.16, written by Peter Selinger 2001-2019
</metadata>
<g transform="translate(0.000000,260.000000) scale(0.100000,-0.100000)"
fill="#000000" stroke="none">
<path d="M580 2374 l0 -216 25 16 c28 18 35 20 35 7 0 -6 -13 -18 -30 -28 -16
-9 -30 -21 -30 -26 0 -5 14 1 31 13 16 12 32 21 33 19 2 -2 9 -14 15 -26 9
-18 20 -23 51 -23 39 0 45 6 41 38 -1 6 6 12 15 12 12 0 15 -6 12 -25 -3 -14
-1 -25 3 -25 5 0 9 4 9 9 0 5 7 12 16 15 14 5 15 4 4 -9 -11 -13 -2 -15 75
-15 93 0 89 -3 74 48 -2 6 41 47 96 90 62 48 101 86 103 99 2 12 -11 54 -28
95 l-31 73 30 26 c49 40 41 51 -34 46 -36 -2 -68 -6 -71 -10 -3 -3 -1 -22 6
-41 17 -51 5 -68 -15 -22 -12 29 -19 36 -28 27 -17 -17 -25 -13 -29 12 -2 14
-11 23 -25 25 -28 4 -29 -12 -4 -54 14 -23 16 -35 8 -49 -7 -13 -6 -24 2 -38
7 -10 11 -20 9 -21 -2 -2 -20 -15 -40 -30 l-37 -28 -16 39 c-9 21 -24 56 -32
77 l-16 39 44 39 c46 41 37 42 -17 1 -17 -13 -33 -23 -36 -23 -4 0 -11 14 -17
30 l-10 30 -95 0 -96 0 0 -216z"/>
<path d="M1320 2505 c0 -58 -4 -77 -15 -81 -12 -5 -15 -28 -15 -120 l0 -114
80 0 c47 0 80 4 80 10 0 6 -32 10 -75 10 l-75 0 0 100 0 100 120 0 120 0 0
-51 c0 -33 4 -48 11 -44 6 4 10 32 9 64 -3 100 -15 91 120 91 l120 0 0 -95 0
-95 -75 0 c-45 0 -75 -4 -75 -10 0 -7 30 -10 83 -8 l82 3 0 105 0 105 -80 5
-80 5 -3 48 -3 47 -165 0 -164 0 0 -75z m310 14 c0 -49 -23 -50 -28 -1 -3 33
-14 38 -58 26 -16 -4 -20 -11 -16 -30 4 -24 3 -24 -69 -26 -67 -1 -70 -2 -29
-8 25 -4 39 -8 33 -8 -7 -1 -13 -11 -13 -23 0 -11 -4 -17 -10 -14 -5 3 -10 1
-10 -4 0 -6 -21 -11 -50 -11 l-50 0 0 70 0 70 150 0 150 0 0 -41z"/>
<path d="M2290 2473 c0 -21 5 -23 55 -23 l55 0 0 -120 0 -120 -160 0 -160 0 0
40 c0 22 -4 40 -10 40 -5 0 -10 -25 -10 -55 l0 -55 180 0 180 0 0 52 c0 44 2
49 13 35 10 -15 12 -11 15 29 2 38 0 45 -13 40 -13 -4 -15 7 -15 73 l0 79 -65
4 c-62 3 -65 2 -65 -19z"/>
<path d="M10 1770 l0 -160 26 0 c23 0 25 3 22 38 l-3 37 205 2 c113 0 208 -1
212 -3 13 -8 -5 -44 -23 -44 -17 0 -19 -8 -17 -97 0 -54 3 -84 5 -66 3 19 11
34 21 36 15 4 15 5 0 6 -15 1 -18 11 -18 54 l0 53 35 0 c34 0 39 -5 36 -36 -1
-11 1 -11 9 3 6 9 20 17 30 17 19 0 20 8 20 160 l0 160 -280 0 -280 0 0 -160z"/>
<path d="M1237 1923 c-4 -3 -7 -109 -7 -235 l0 -228 50 0 50 0 0 235 0 235
-43 0 c-24 0 -47 -3 -50 -7z"/>
<path d="M2058 1856 c-64 -17 -121 -35 -126 -41 -8 -8 -42 -180 -42 -209 0 -4
21 -4 48 -2 164 18 162 18 162 -4 0 -13 7 -20 19 -20 16 0 19 6 15 33 -17 125
-22 182 -19 187 5 8 -127 -21 -135 -30 -3 -3 -15 -5 -27 -6 -16 0 -23 5 -23
18 0 10 10 23 23 28 21 9 200 60 211 60 11 0 6 -46 -5 -57 -8 -8 -8 -13 0 -18
15 -9 23 15 19 57 l-3 35 -117 -31z"/>
<path d="M1115 1730 c4 -7 -12 -8 -49 -4 -54 6 -55 6 -49 -17 6 -21 7 -22 14
-3 5 13 8 4 8 -28 1 -33 -3 -47 -11 -45 -8 1 -14 -11 -16 -30 -2 -23 -9 -33
-25 -36 -12 -2 -7 -3 12 -1 33 3 33 3 28 -31 -3 -19 -2 -35 4 -35 5 0 9 16 9
35 0 19 5 35 10 35 6 0 10 10 11 23 0 12 3 16 6 10 2 -7 17 -13 31 -12 24 0
25 1 7 8 -19 8 -18 9 5 12 23 4 25 8 28 67 2 51 0 62 -13 62 -9 0 -13 -5 -10
-10z"/>
<path d="M1534 1263 c1 -14 -7 -18 -29 -18 -16 0 -45 -4 -62 -8 l-33 -9 0
-219 0 -219 280 0 280 0 0 245 0 245 -55 0 c-48 0 -55 -3 -55 -20 0 -10 8 -24
18 -29 14 -9 15 -12 3 -20 -8 -5 -16 -22 -19 -38 -4 -32 -22 -57 -22 -30 0 9
-5 17 -11 17 -6 0 -3 7 5 16 18 18 21 34 5 34 -13 0 -8 52 6 62 5 4 -45 8
-112 8 -109 0 -156 -9 -121 -23 7 -3 2 -6 -11 -6 -17 -1 -22 3 -17 14 4 11 -2
15 -23 15 -21 0 -28 -5 -27 -17z"/>
<path d="M2130 1261 c0 -13 -8 -21 -22 -23 -32 -4 -52 -49 -37 -82 7 -14 16
-27 21 -27 4 -1 14 -2 21 -3 7 -1 13 -21 15 -57 3 -54 2 -57 -23 -63 -34 -9
-50 -49 -33 -84 17 -35 46 -38 83 -7 23 19 26 25 13 25 -10 0 -18 7 -18 15 0
11 12 15 50 15 48 0 67 -14 35 -26 -8 -4 -12 -10 -9 -15 7 -12 141 -11 149 1
3 6 0 10 -8 10 -8 0 -17 7 -21 15 -4 12 5 15 49 15 55 0 70 -11 39 -28 -14 -8
-12 -12 14 -31 37 -26 58 -27 72 -2 23 44 -2 110 -36 97 -11 -4 -14 9 -14 60
0 43 4 63 11 59 16 -10 49 25 49 52 0 35 -18 63 -40 63 -13 0 -20 7 -20 20 0
19 -7 20 -170 20 -161 0 -170 -1 -170 -19z m330 -121 l0 -130 -65 0 c-51 0
-65 3 -65 15 0 10 -10 15 -30 15 -20 0 -30 -5 -30 -15 0 -12 -14 -15 -65 -15
l-65 0 0 130 0 130 160 0 160 0 0 -130z"/>
<path d="M803 1253 l-83 -4 0 -147 0 -147 71 -30 c92 -39 98 -47 57 -79 l-33
-26 68 0 c51 0 69 4 73 15 8 19 21 19 58 0 34 -18 76 -20 76 -3 0 9 3 9 12 0
7 -7 18 -12 25 -12 16 0 40 78 27 89 -5 5 -51 19 -103 31 -74 18 -98 20 -112
11 -27 -16 -30 -14 -17 14 12 26 27 31 44 16 12 -11 176 -51 210 -51 25 0 26
-2 20 -37 -4 -21 -9 -46 -12 -55 -5 -16 4 -18 85 -18 l91 0 -1 130 c-1 105 -3
130 -15 130 -18 0 -18 14 0 29 8 7 14 35 15 76 l1 65 -142 0 c-79 0 -186 2
-238 4 -52 2 -132 1 -177 -1z m297 -41 c8 -4 14 -14 14 -22 -4 -42 -6 -44 -14
-22 -10 22 -30 31 -30 11 0 -5 -4 -7 -10 -4 -5 3 -10 1 -10 -4 0 -6 9 -11 20
-11 13 0 24 -10 30 -25 12 -31 20 -33 12 -3 -4 17 -2 20 12 15 10 -4 26 -7 37
-7 15 0 19 -7 19 -37 0 -35 -2 -38 -27 -38 -16 0 -35 6 -43 14 -13 13 -15 9
-18 -33 -3 -42 -5 -47 -25 -44 -19 3 -23 11 -28 63 -5 51 -6 54 -7 18 -2 -44
-7 -48 -50 -37 -19 6 -23 13 -21 48 1 22 -2 60 -6 84 l-8 42 69 -1 c38 0 76
-3 84 -7z"/>
<path d="M653 394 c1 -126 6 -230 11 -231 5 -1 13 -7 17 -15 7 -10 18 -7 57
14 29 16 57 25 69 22 12 -3 29 -1 39 4 12 7 23 6 36 -1 13 -9 25 -9 46 -1 19
7 35 8 46 2 10 -6 20 -7 23 -4 4 3 -11 51 -31 107 -21 56 -34 105 -29 109 4 4
17 10 28 13 18 4 17 5 -3 6 -13 0 -32 -3 -42 -9 -15 -8 -17 -16 -9 -47 11 -47
12 -179 2 -169 -11 11 -63 228 -57 238 3 4 1 8 -4 8 -6 0 -12 -7 -16 -15 -3
-8 -15 -15 -26 -15 -18 0 -21 5 -17 33 3 31 5 32 65 40 34 5 62 12 62 16 0 4
-10 16 -22 27 -12 10 -18 13 -14 7 10 -17 -4 -16 -28 2 -33 25 -53 19 -48 -14
3 -19 -1 -30 -12 -34 -9 -4 -16 -2 -16 3 0 6 -5 10 -10 10 -6 0 -10 -8 -8 -17
2 -12 -4 -19 -19 -21 -13 -2 -23 -8 -23 -14 0 -6 10 -8 25 -4 31 8 37 -5 27
-54 -5 -21 -14 -35 -22 -35 -8 0 -14 6 -13 13 4 17 -5 15 -25 -5 -16 -16 -17
-15 -23 13 -8 37 -11 128 -4 146 4 9 17 13 40 10 21 -3 35 0 35 7 0 6 -17 11
-37 12 -21 0 -32 3 -25 6 6 2 12 9 12 14 0 4 -7 6 -15 3 -9 -4 -15 0 -15 10 0
19 -2 19 117 6 97 -10 158 -3 93 12 -19 4 -81 11 -137 14 l-102 7 2 -229z"/>
<path d="M1240 380 l0 -230 293 0 294 0 6 152 c4 83 7 186 7 230 l0 78 -300 0
-300 0 0 -230z"/>
<path d="M2105 551 c-3 -6 -15 -11 -26 -11 -10 0 -19 -4 -19 -10 0 -6 -27 -10
-60 -10 -47 0 -60 -3 -60 -15 0 -10 -10 -15 -30 -15 l-30 0 0 -95 c0 -99 3
-105 44 -89 23 9 20 22 -6 26 -13 2 -22 8 -20 13 2 6 12 9 22 7 22 -4 28 23 8
31 -10 4 -10 6 0 6 7 1 12 16 12 42 0 31 3 40 14 36 8 -3 16 2 19 14 4 15 14
19 46 19 l41 0 0 -65 c0 -64 -10 -81 -29 -48 -14 25 -22 11 -15 -25 4 -18 14
-32 25 -35 11 -3 19 -14 19 -26 0 -18 -6 -21 -40 -19 -22 1 -43 -2 -47 -5 -3
-4 15 -7 40 -7 26 0 47 -4 47 -10 0 -5 9 -10 19 -10 17 0 20 8 23 48 l3 47 69
3 c75 3 88 -2 76 -33 -5 -11 -9 -14 -9 -8 -1 19 -48 -5 -48 -24 0 -11 8 -14
33 -10 23 4 33 2 31 -6 -1 -7 -28 -15 -62 -19 -35 -3 -6 -5 69 -3 71 2 132 8
135 13 3 5 30 12 60 15 30 4 59 11 65 17 5 5 20 10 33 10 22 0 23 3 23 89 0
84 -1 89 -20 84 -28 -8 -35 -23 -11 -23 12 0 21 -4 21 -8 0 -17 -13 -21 -31
-11 -14 7 -19 21 -19 49 l0 40 -60 0 c-51 0 -60 3 -60 18 0 16 -7 18 -47 15
-66 -5 -182 -4 -215 3 -14 3 -29 0 -33 -5z"/>
<path d="M69 453 c-12 -31 -7 -37 46 -53 22 -6 59 -19 82 -27 l41 -15 -14 -47
c-17 -58 -17 -66 0 -52 8 7 17 28 21 48 3 19 10 43 15 52 4 9 13 27 18 41 8
18 11 20 11 8 1 -23 39 -24 48 -2 7 20 -27 50 -37 34 -4 -7 -11 -5 -20 5 -16
19 -31 20 -24 0 8 -19 14 -19 -81 10 -44 14 -83 25 -88 25 -4 0 -12 -12 -18
-27z"/>
<path d="M427 424 c-2 -5 -12 -46 -22 -90 -24 -111 -23 -110 -80 -85 -99 44
-80 16 35 -53 84 -51 84 -51 153 23 34 36 45 55 40 68 -6 16 -8 16 -13 -3 -4
-18 -9 -20 -27 -13 -28 10 -31 23 -3 14 26 -8 26 12 0 45 l-19 25 5 -25 c4
-17 3 -21 -4 -12 -6 10 -13 1 -22 -32 -12 -42 -13 -44 -37 -33 -20 9 -23 15
-18 41 13 61 16 67 38 64 29 -4 37 39 10 49 -10 4 -21 11 -24 16 -4 5 -9 5
-12 1z"/>
</g>
</svg>
